<mxfile host="app.diagrams.net" modified="2023-07-13T16:03:17.680Z" agent="Mozilla/5.0 (Windows NT 10.0; Win64; x64) AppleWebKit/537.36 (KHTML, like Gecko) Chrome/114.0.0.0 Safari/537.36" etag="VjechmxdmSFk4AU8jlwa" version="21.6.2" type="device">
  <diagram name="Страница 1" id="NCzN6s8SH78sK8FHHJCp">
    <mxGraphModel dx="2074" dy="1124" grid="1" gridSize="10" guides="1" tooltips="1" connect="1" arrows="1" fold="1" page="1" pageScale="1" pageWidth="827" pageHeight="1169" math="0" shadow="0">
      <root>
        <mxCell id="0" />
        <mxCell id="1" parent="0" />
        <mxCell id="c85BhNxyTID2QVpNWK1F-32" value="Posts" style="swimlane;" vertex="1" parent="1">
          <mxGeometry x="490" y="240" width="850" height="400" as="geometry" />
        </mxCell>
        <mxCell id="c85BhNxyTID2QVpNWK1F-18" value="&lt;font style=&quot;border-color: var(--border-color); text-align: left; vertical-align: inherit;&quot;&gt;&lt;font style=&quot;vertical-align: inherit;&quot;&gt;&lt;font style=&quot;vertical-align: inherit;&quot;&gt;Страница для публикаций.&lt;/font&gt;&lt;/font&gt;&lt;/font&gt;" style="rounded=1;whiteSpace=wrap;html=1;" vertex="1" parent="c85BhNxyTID2QVpNWK1F-32">
          <mxGeometry x="12" y="30" width="160" height="20" as="geometry" />
        </mxCell>
        <mxCell id="c85BhNxyTID2QVpNWK1F-19" value="&lt;font style=&quot;vertical-align: inherit;&quot;&gt;&lt;font style=&quot;vertical-align: inherit;&quot;&gt;Получение списка публикаций.&lt;/font&gt;&lt;/font&gt;" style="rounded=1;whiteSpace=wrap;html=1;" vertex="1" parent="c85BhNxyTID2QVpNWK1F-32">
          <mxGeometry x="12" y="60" width="180" height="20" as="geometry" />
        </mxCell>
        <mxCell id="c85BhNxyTID2QVpNWK1F-20" value="&lt;font style=&quot;vertical-align: inherit;&quot;&gt;&lt;font style=&quot;vertical-align: inherit;&quot;&gt;Получение списка публикаций тиражированием с сортировкой: по количеству, дате создания, по количеству лайков, по количеству комментариев.&lt;/font&gt;&lt;/font&gt;" style="rounded=1;whiteSpace=wrap;html=1;" vertex="1" parent="c85BhNxyTID2QVpNWK1F-32">
          <mxGeometry x="12" y="90" width="830" height="20" as="geometry" />
        </mxCell>
        <mxCell id="c85BhNxyTID2QVpNWK1F-22" value="&lt;font style=&quot;vertical-align: inherit;&quot;&gt;&lt;font style=&quot;vertical-align: inherit;&quot;&gt;Лента пользователя.&lt;/font&gt;&lt;/font&gt;" style="rounded=1;whiteSpace=wrap;html=1;" vertex="1" parent="c85BhNxyTID2QVpNWK1F-32">
          <mxGeometry x="12" y="120" width="130" height="20" as="geometry" />
        </mxCell>
        <mxCell id="c85BhNxyTID2QVpNWK1F-23" value="&lt;font style=&quot;vertical-align: inherit;&quot;&gt;&lt;font style=&quot;vertical-align: inherit;&quot;&gt;Категоризация публикаций по тегам.&lt;/font&gt;&lt;/font&gt;" style="rounded=1;whiteSpace=wrap;html=1;" vertex="1" parent="c85BhNxyTID2QVpNWK1F-32">
          <mxGeometry x="12" y="150" width="220" height="20" as="geometry" />
        </mxCell>
        <mxCell id="c85BhNxyTID2QVpNWK1F-25" value="&lt;font style=&quot;vertical-align: inherit;&quot;&gt;&lt;font style=&quot;vertical-align: inherit;&quot;&gt;Поиск публикаций по названию.&lt;/font&gt;&lt;/font&gt;" style="rounded=1;whiteSpace=wrap;html=1;" vertex="1" parent="c85BhNxyTID2QVpNWK1F-32">
          <mxGeometry x="12" y="180" width="190" height="20" as="geometry" />
        </mxCell>
        <mxCell id="c85BhNxyTID2QVpNWK1F-6" value="&lt;font style=&quot;vertical-align: inherit;&quot;&gt;&lt;font style=&quot;vertical-align: inherit;&quot;&gt;Просмотр детальной информации о публикации.&lt;/font&gt;&lt;/font&gt;" style="rounded=1;whiteSpace=wrap;html=1;" vertex="1" parent="c85BhNxyTID2QVpNWK1F-32">
          <mxGeometry x="12" y="210" width="290" height="20" as="geometry" />
        </mxCell>
        <mxCell id="c85BhNxyTID2QVpNWK1F-5" value="&lt;font style=&quot;vertical-align: inherit;&quot;&gt;&lt;font style=&quot;vertical-align: inherit;&quot;&gt;Создание новых публикаций в блоге разных видов: видео, текст, цитата, фото, ссылка.&lt;/font&gt;&lt;/font&gt;" style="rounded=1;whiteSpace=wrap;html=1;" vertex="1" parent="c85BhNxyTID2QVpNWK1F-32">
          <mxGeometry x="12" y="246" width="500" height="20" as="geometry" />
        </mxCell>
        <mxCell id="c85BhNxyTID2QVpNWK1F-7" value="&lt;font style=&quot;vertical-align: inherit;&quot;&gt;&lt;font style=&quot;vertical-align: inherit;&quot;&gt;Редактирование публикаций в блоге.&lt;/font&gt;&lt;/font&gt;" style="rounded=1;whiteSpace=wrap;html=1;" vertex="1" parent="c85BhNxyTID2QVpNWK1F-32">
          <mxGeometry x="12" y="276" width="220" height="20" as="geometry" />
        </mxCell>
        <mxCell id="c85BhNxyTID2QVpNWK1F-8" value="&lt;font style=&quot;vertical-align: inherit;&quot;&gt;&lt;font style=&quot;vertical-align: inherit;&quot;&gt;Удаление публикаций в блоге.&lt;/font&gt;&lt;/font&gt;" style="rounded=1;whiteSpace=wrap;html=1;" vertex="1" parent="c85BhNxyTID2QVpNWK1F-32">
          <mxGeometry x="12" y="306" width="180" height="20" as="geometry" />
        </mxCell>
        <mxCell id="c85BhNxyTID2QVpNWK1F-9" value="&lt;font style=&quot;vertical-align: inherit;&quot;&gt;&lt;font style=&quot;vertical-align: inherit;&quot;&gt;Загрузка изображений для публикации в блоге.&lt;/font&gt;&lt;/font&gt;" style="rounded=1;whiteSpace=wrap;html=1;" vertex="1" parent="c85BhNxyTID2QVpNWK1F-32">
          <mxGeometry x="12" y="336" width="280" height="20" as="geometry" />
        </mxCell>
        <mxCell id="c85BhNxyTID2QVpNWK1F-21" value="&lt;font style=&quot;vertical-align: inherit;&quot;&gt;&lt;font style=&quot;vertical-align: inherit;&quot;&gt;Репост публикаций.&lt;/font&gt;&lt;/font&gt;" style="rounded=1;whiteSpace=wrap;html=1;" vertex="1" parent="c85BhNxyTID2QVpNWK1F-32">
          <mxGeometry x="12" y="366" width="120" height="20" as="geometry" />
        </mxCell>
        <mxCell id="c85BhNxyTID2QVpNWK1F-33" value="Users" style="swimlane;" vertex="1" parent="1">
          <mxGeometry x="490" y="30" width="320" height="190" as="geometry" />
        </mxCell>
        <mxCell id="c85BhNxyTID2QVpNWK1F-2" value="&lt;font style=&quot;vertical-align: inherit;&quot;&gt;&lt;font style=&quot;vertical-align: inherit;&quot;&gt;Регистрация новых пользователей.&lt;/font&gt;&lt;/font&gt;" style="rounded=1;whiteSpace=wrap;html=1;" vertex="1" parent="c85BhNxyTID2QVpNWK1F-33">
          <mxGeometry x="10" y="40" width="210" height="20" as="geometry" />
        </mxCell>
        <mxCell id="c85BhNxyTID2QVpNWK1F-4" value="&lt;font style=&quot;vertical-align: inherit;&quot;&gt;&lt;font style=&quot;vertical-align: inherit;&quot;&gt;Авторизация пользователей на основе JWT.&lt;/font&gt;&lt;/font&gt;" style="rounded=1;whiteSpace=wrap;html=1;" vertex="1" parent="c85BhNxyTID2QVpNWK1F-33">
          <mxGeometry x="10" y="70" width="260" height="20" as="geometry" />
        </mxCell>
        <mxCell id="c85BhNxyTID2QVpNWK1F-26" value="&lt;font style=&quot;vertical-align: inherit;&quot;&gt;&lt;font style=&quot;vertical-align: inherit;&quot;&gt;Получение детальной информации о пользователе.&lt;/font&gt;&lt;/font&gt;" style="rounded=1;whiteSpace=wrap;html=1;" vertex="1" parent="c85BhNxyTID2QVpNWK1F-33">
          <mxGeometry x="10" y="100" width="300" height="20" as="geometry" />
        </mxCell>
        <mxCell id="c85BhNxyTID2QVpNWK1F-27" value="&lt;font style=&quot;vertical-align: inherit;&quot;&gt;&lt;font style=&quot;vertical-align: inherit;&quot;&gt;Смена пароля пользователя.&lt;/font&gt;&lt;/font&gt;" style="rounded=1;whiteSpace=wrap;html=1;" vertex="1" parent="c85BhNxyTID2QVpNWK1F-33">
          <mxGeometry x="10" y="130" width="170" height="20" as="geometry" />
        </mxCell>
        <mxCell id="c85BhNxyTID2QVpNWK1F-28" value="&lt;font style=&quot;vertical-align: inherit;&quot;&gt;&lt;font style=&quot;vertical-align: inherit;&quot;&gt;Подписка на обновления других пользователей.&lt;/font&gt;&lt;/font&gt;" style="rounded=1;whiteSpace=wrap;html=1;" vertex="1" parent="c85BhNxyTID2QVpNWK1F-33">
          <mxGeometry x="10" y="160" width="280" height="20" as="geometry" />
        </mxCell>
        <mxCell id="c85BhNxyTID2QVpNWK1F-34" value="Comments" style="swimlane;" vertex="1" parent="1">
          <mxGeometry x="490" y="660" width="370" height="90" as="geometry" />
        </mxCell>
        <mxCell id="c85BhNxyTID2QVpNWK1F-10" value="&lt;font style=&quot;vertical-align: inherit;&quot;&gt;&lt;font style=&quot;vertical-align: inherit;&quot;&gt;Комментирование публикаций в блоге.&lt;/font&gt;&lt;/font&gt;" style="rounded=1;whiteSpace=wrap;html=1;" vertex="1" parent="c85BhNxyTID2QVpNWK1F-34">
          <mxGeometry x="10" y="30" width="230" height="20" as="geometry" />
        </mxCell>
        <mxCell id="c85BhNxyTID2QVpNWK1F-13" value="&lt;font style=&quot;border-color: var(--border-color); text-align: left; vertical-align: inherit;&quot;&gt;&lt;font style=&quot;vertical-align: inherit;&quot;&gt;&lt;font style=&quot;vertical-align: inherit;&quot;&gt;Лайки к публикации.&amp;nbsp;&lt;/font&gt;&lt;/font&gt;&lt;/font&gt;&lt;font style=&quot;border-color: var(--border-color); text-align: left; vertical-align: inherit;&quot;&gt;&lt;font style=&quot;vertical-align: inherit;&quot;&gt;&lt;font style=&quot;vertical-align: inherit;&quot;&gt;Подсчет количества лайков к публикации.&lt;/font&gt;&lt;/font&gt;&lt;/font&gt;" style="rounded=1;whiteSpace=wrap;html=1;" vertex="1" parent="c85BhNxyTID2QVpNWK1F-34">
          <mxGeometry x="10" y="60" width="360" height="20" as="geometry" />
        </mxCell>
        <mxCell id="c85BhNxyTID2QVpNWK1F-35" value="Notify" style="swimlane;" vertex="1" parent="1">
          <mxGeometry x="490" y="790" width="450" height="70" as="geometry" />
        </mxCell>
        <mxCell id="c85BhNxyTID2QVpNWK1F-24" value="&lt;font style=&quot;vertical-align: inherit;&quot;&gt;&lt;font style=&quot;vertical-align: inherit;&quot;&gt;Рассылка почтовых сообщений по электронной почте о новых публикациях.&lt;/font&gt;&lt;/font&gt;" style="rounded=1;whiteSpace=wrap;html=1;" vertex="1" parent="c85BhNxyTID2QVpNWK1F-35">
          <mxGeometry x="10" y="30" width="440" height="20" as="geometry" />
        </mxCell>
        <mxCell id="c85BhNxyTID2QVpNWK1F-41" style="edgeStyle=orthogonalEdgeStyle;rounded=0;orthogonalLoop=1;jettySize=auto;html=1;entryX=0;entryY=0.5;entryDx=0;entryDy=0;" edge="1" parent="1" source="c85BhNxyTID2QVpNWK1F-37" target="c85BhNxyTID2QVpNWK1F-33">
          <mxGeometry relative="1" as="geometry">
            <mxPoint x="380" y="360" as="targetPoint" />
            <Array as="points">
              <mxPoint x="390" y="380" />
              <mxPoint x="390" y="125" />
            </Array>
          </mxGeometry>
        </mxCell>
        <mxCell id="c85BhNxyTID2QVpNWK1F-42" style="edgeStyle=orthogonalEdgeStyle;rounded=0;orthogonalLoop=1;jettySize=auto;html=1;" edge="1" parent="1" source="c85BhNxyTID2QVpNWK1F-37">
          <mxGeometry relative="1" as="geometry">
            <mxPoint x="490" y="400" as="targetPoint" />
          </mxGeometry>
        </mxCell>
        <mxCell id="c85BhNxyTID2QVpNWK1F-43" style="edgeStyle=orthogonalEdgeStyle;rounded=0;orthogonalLoop=1;jettySize=auto;html=1;exitX=1;exitY=0.5;exitDx=0;exitDy=0;entryX=0;entryY=0.5;entryDx=0;entryDy=0;" edge="1" parent="1" source="c85BhNxyTID2QVpNWK1F-37" target="c85BhNxyTID2QVpNWK1F-34">
          <mxGeometry relative="1" as="geometry">
            <Array as="points">
              <mxPoint x="290" y="420" />
              <mxPoint x="390" y="420" />
              <mxPoint x="390" y="705" />
            </Array>
          </mxGeometry>
        </mxCell>
        <mxCell id="c85BhNxyTID2QVpNWK1F-44" style="edgeStyle=orthogonalEdgeStyle;rounded=0;orthogonalLoop=1;jettySize=auto;html=1;exitX=1;exitY=0.5;exitDx=0;exitDy=0;entryX=0;entryY=0.5;entryDx=0;entryDy=0;" edge="1" parent="1" source="c85BhNxyTID2QVpNWK1F-37" target="c85BhNxyTID2QVpNWK1F-35">
          <mxGeometry relative="1" as="geometry">
            <Array as="points">
              <mxPoint x="290" y="440" />
              <mxPoint x="370" y="440" />
              <mxPoint x="370" y="825" />
            </Array>
          </mxGeometry>
        </mxCell>
        <mxCell id="c85BhNxyTID2QVpNWK1F-37" value="БFF" style="swimlane;" vertex="1" parent="1">
          <mxGeometry x="130" y="340" width="160" height="120" as="geometry" />
        </mxCell>
        <mxCell id="c85BhNxyTID2QVpNWK1F-38" value="&lt;h3 style=&quot;box-sizing: inherit; text-rendering: optimizelegibility; -webkit-font-smoothing: antialiased; font-family: &amp;quot;TT Norms Pro&amp;quot;, Arial, sans-serif; color: rgb(51, 51, 51); margin: 15px 0px; font-size: 20px; line-height: 30px; padding: 0px; border-bottom: none; align-self: flex-start; text-align: left; background-color: rgb(255, 255, 255); font-variant-ligatures: none;&quot; id=&quot;9.-backend-for-frontend&quot;&gt;&lt;font style=&quot;vertical-align: inherit;&quot;&gt;&lt;font style=&quot;vertical-align: inherit;&quot;&gt;&lt;font style=&quot;vertical-align: inherit;&quot;&gt;&lt;font style=&quot;vertical-align: inherit;&quot;&gt;Бэкенд для фронтенда&lt;/font&gt;&lt;/font&gt;&lt;/font&gt;&lt;/font&gt;&lt;/h3&gt;" style="rounded=1;whiteSpace=wrap;html=1;" vertex="1" parent="c85BhNxyTID2QVpNWK1F-37">
          <mxGeometry x="15" y="40" width="130" height="70" as="geometry" />
        </mxCell>
      </root>
    </mxGraphModel>
  </diagram>
</mxfile>
